<svg width="520" height="500" xmlns="http://www.w3.org/2000/svg">

 <g>
  <title>Layer 1</title>
  <g stroke="null">
   <g stroke="null">
    <title stroke="null">Layer 1</title>
    <path stroke="null" d="m485.36477,169.09853c-65.32304,-82.29104 -151.99895,-55.73902 -196.54567,-33.58704c6.74169,-6.95916 10.90909,-16.43191 10.90909,-26.88582c0,-17.18548 -11.2176,-31.73599 -26.72903,-36.76823l0,-23.42142l21.0646,0l0,-23.88671l-21.0646,0l0,-20.6246l-23.88671,0l0,20.6246l-21.06966,0l0,23.88671l21.06966,0l0,23.42142c-15.50638,5.03224 -26.72903,19.58275 -26.72903,36.76823c0,11.14679 4.74396,21.16575 12.29485,28.22101c-43.67681,-22.3745 -132.55276,-51.71323 -199.19581,32.25186c-74.2344,93.5137 0.9053,198.83167 29.10607,232.44401l0,43.74256c53.86267,-15.42546 121.1278,-24.52901 194.05736,-24.52901c72.92956,0 140.19469,9.10355 194.05736,24.47844l0,-39.54482c24.5189,-28.03894 110.33504,-138.74823 32.66151,-236.59117l0,-0.00001zm-15.84524,12.57302c70.25918,88.50674 -15.25351,192.12033 -34.06246,212.98769l-37.82525,0c5.4419,-1.52231 66.89593,-52.87646 58.46503,-131.01022c-8.45113,-78.31077 -87.11592,-43.85383 -87.11592,-43.85383s-16.66961,-57.01351 -88.80008,-40.19724l0,-16.39651c28.29687,-18.04021 121.44643,-67.05271 189.33869,18.47009zm-418.18679,0c65.14096,-82.07357 153.94104,-39.95953 185.82877,-20.61955l0,17.48894c-68.10973,-13.27601 -84.01566,41.25426 -84.01566,41.25426s-78.6648,-34.45694 -87.11592,43.85383c-8.4309,78.13375 53.01807,129.48284 58.46503,131.01022l-39.09469,0c-18.81906,-20.8623 -104.3267,-124.47588 -34.06751,-212.98769l0,0.00001z" fill="#546284"/>
    <path stroke="null" d="m63.77263,462.58184l0,32.57049c53.86267,-15.42546 121.1278,-24.57959 194.05736,-24.57959c72.92956,0 140.19469,9.15413 194.05736,24.52901l0,-32.57049c-53.86267,-15.37489 -121.1278,-24.47844 -194.05736,-24.47844c-72.92956,0 -140.19469,9.10355 -194.05736,24.52901l0,-0.00001z" fill="#546284"/>
   </g>
  </g>
  <g stroke="null" id="svg_22">
   <g stroke="null" id="svg_23">
    <text stroke="#000" transform="matrix(10.7214 0 0 9.77825 -3206.49 -1541.31)" font-style="normal" font-weight="normal" xml:space="preserve" text-anchor="start" font-family="'Anton'" font-size="24" id="svg_1" y="198.10874" x="313.76506" stroke-width="0" fill="#7784a8">M</text>
    <text stroke="#000" transform="matrix(10.7214 0 0 9.77833 -3267.46 -1660.8)" font-style="normal" font-weight="normal" xml:space="preserve" text-anchor="start" font-family="'Anton'" font-size="24" id="svg_2" y="210.20219" x="318.65347" stroke-width="0" fill="#223159">M</text>
   </g>
  </g>
 </g>
</svg>